<?xml version="1.0" encoding="UTF-8" standalone="no"?>
<!-- Created with Inkscape (http://www.inkscape.org/) -->

<svg
   xmlns:dc="http://purl.org/dc/elements/1.1/"
   xmlns:cc="http://creativecommons.org/ns#"
   xmlns:rdf="http://www.w3.org/1999/02/22-rdf-syntax-ns#"
   xmlns:svg="http://www.w3.org/2000/svg"
   xmlns="http://www.w3.org/2000/svg"
   xmlns:sodipodi="http://sodipodi.sourceforge.net/DTD/sodipodi-0.dtd"
   xmlns:inkscape="http://www.inkscape.org/namespaces/inkscape"
   width="24"
   height="24"
   id="svg4755"
   version="1.1"
   inkscape:version="0.91 r13725"
   viewBox="0 0 24 24"
   sodipodi:docname="cog.svg">
  <defs
     id="defs4757" />
  <sodipodi:namedview
     id="base"
     pagecolor="#ffffff"
     bordercolor="#666666"
     borderopacity="1.0"
     inkscape:pageopacity="0.0"
     inkscape:pageshadow="2"
     inkscape:zoom="22.627417"
     inkscape:cx="17.429765"
     inkscape:cy="8.3700914"
     inkscape:current-layer="layer1"
     showgrid="true"
     inkscape:grid-bbox="true"
     inkscape:document-units="px"
     objecttolerance="10000"
     guidetolerance="10000"
     inkscape:window-width="1867"
     inkscape:window-height="1056"
     inkscape:window-x="53"
     inkscape:window-y="24"
     inkscape:window-maximized="1"
     showguides="false">
    <inkscape:grid
       type="xygrid"
       id="grid5303"
       empspacing="5"
       originx="2"
       originy="2"
       dotted="false" />
  </sodipodi:namedview>
  <metadata
     id="metadata4760">
    <rdf:RDF>
      <cc:Work
         rdf:about="">
        <dc:format>image/svg+xml</dc:format>
        <dc:type
           rdf:resource="http://purl.org/dc/dcmitype/StillImage" />
        <dc:title></dc:title>
      </cc:Work>
    </rdf:RDF>
  </metadata>
  <g
     id="layer1"
     inkscape:label="Layer 1"
     inkscape:groupmode="layer"
     transform="translate(0,-24)">
    <path
       style="color:#000000;clip-rule:nonzero;display:inline;overflow:visible;visibility:visible;opacity:1;isolation:auto;mix-blend-mode:normal;color-interpolation:sRGB;color-interpolation-filters:linearRGB;solid-color:#000000;solid-opacity:1;fill:#000000;fill-opacity:1;fill-rule:nonzero;stroke:none;stroke-width:2;stroke-linecap:butt;stroke-linejoin:miter;stroke-miterlimit:4;stroke-dasharray:none;stroke-dashoffset:0;stroke-opacity:1;marker:none;color-rendering:auto;image-rendering:auto;shape-rendering:auto;text-rendering:auto;enable-background:accumulate"
       d="M 10 2 C 9.723 2 9.5455385 2.226769 9.5 2.5 L 9.0664062 5.1074219 A 7.5 7.5 0 0 0 7.4960938 6.0117188 L 5.0234375 5.0839844 C 4.7520615 5.0284514 4.4783436 5.0276891 4.3398438 5.2675781 L 2.3398438 8.7324219 C 2.2013437 8.9723109 2.3095818 9.2399626 2.5234375 9.4160156 L 4.5605469 11.09375 A 7.5 7.5 0 0 0 4.5 12 A 7.5 7.5 0 0 0 4.5644531 12.904297 L 2.5234375 14.583984 C 2.3396565 14.791236 2.2013437 15.027689 2.3398438 15.267578 L 4.3398438 18.732422 C 4.4783438 18.972315 4.7640433 19.013196 5.0234375 18.916016 L 7.4980469 17.986328 A 7.5 7.5 0 0 0 9.0664062 18.902344 L 9.5 21.5 C 9.587595 21.762785 9.723 22 10 22 L 14 22 C 14.277 22 14.454462 21.773231 14.5 21.5 L 14.933594 18.892578 A 7.5 7.5 0 0 0 16.503906 17.988281 L 18.976562 18.916016 C 19.247939 18.971549 19.521656 18.972311 19.660156 18.732422 L 21.660156 15.267578 C 21.798656 15.027689 21.690418 14.760037 21.476562 14.583984 L 19.439453 12.90625 A 7.5 7.5 0 0 0 19.5 12 A 7.5 7.5 0 0 0 19.435547 11.095703 L 21.476562 9.4160156 C 21.660343 9.2087636 21.798656 8.9723109 21.660156 8.7324219 L 19.660156 5.2675781 C 19.521656 5.0276851 19.235957 4.9868044 18.976562 5.0839844 L 16.501953 6.0136719 A 7.5 7.5 0 0 0 14.933594 5.0976562 L 14.5 2.5 C 14.412405 2.237215 14.277 2 14 2 L 10 2 z M 12 8.5 A 3.5 3.5 0 0 1 15.5 12 A 3.5 3.5 0 0 1 12 15.5 A 3.5 3.5 0 0 1 8.5 12 A 3.5 3.5 0 0 1 12 8.5 z "
       transform="translate(0,24)"
       id="circle5067" />
  </g>
</svg>
