<?xml version="1.0" encoding="UTF-8" standalone="no"?>
<!-- Created with Inkscape (http://www.inkscape.org/) -->

<svg
   xmlns:dc="http://purl.org/dc/elements/1.1/"
   xmlns:cc="http://creativecommons.org/ns#"
   xmlns:rdf="http://www.w3.org/1999/02/22-rdf-syntax-ns#"
   xmlns:svg="http://www.w3.org/2000/svg"
   xmlns="http://www.w3.org/2000/svg"
   xmlns:sodipodi="http://sodipodi.sourceforge.net/DTD/sodipodi-0.dtd"
   xmlns:inkscape="http://www.inkscape.org/namespaces/inkscape"
   width="24"
   height="24"
   id="svg4755"
   version="1.1"
   inkscape:version="0.91 r13725"
   viewBox="0 0 24 24"
   sodipodi:docname="volume-up.svg">
  <defs
     id="defs4757" />
  <sodipodi:namedview
     id="base"
     pagecolor="#ffffff"
     bordercolor="#666666"
     borderopacity="1.0"
     inkscape:pageopacity="0.0"
     inkscape:pageshadow="2"
     inkscape:zoom="20.461902"
     inkscape:cx="13.566196"
     inkscape:cy="7.2669911"
     inkscape:current-layer="g4204"
     showgrid="true"
     inkscape:grid-bbox="true"
     inkscape:document-units="px"
     objecttolerance="10000"
     guidetolerance="10000"
     inkscape:window-width="1867"
     inkscape:window-height="1056"
     inkscape:window-x="53"
     inkscape:window-y="24"
     inkscape:window-maximized="1">
    <inkscape:grid
       type="xygrid"
       id="grid5303"
       empspacing="5"
       originx="2"
       originy="2"
       dotted="false" />
  </sodipodi:namedview>
  <metadata
     id="metadata4760">
    <rdf:RDF>
      <cc:Work
         rdf:about="">
        <dc:format>image/svg+xml</dc:format>
        <dc:type
           rdf:resource="http://purl.org/dc/dcmitype/StillImage" />
        <dc:title></dc:title>
      </cc:Work>
    </rdf:RDF>
  </metadata>
  <g
     id="layer1"
     inkscape:label="Layer 1"
     inkscape:groupmode="layer"
     transform="translate(0,-24)">
    <g
       id="g4204"
       transform="matrix(2,0,0,2,-2,-35.464102)">
      <path
         style="color:#000000;clip-rule:nonzero;display:inline;overflow:visible;visibility:visible;opacity:1;isolation:auto;mix-blend-mode:normal;color-interpolation:sRGB;color-interpolation-filters:linearRGB;solid-color:#000000;solid-opacity:1;fill:#000000;fill-opacity:1;fill-rule:nonzero;stroke:none;stroke-width:2;stroke-linecap:square;stroke-linejoin:miter;stroke-miterlimit:4;stroke-dasharray:none;stroke-dashoffset:0;stroke-opacity:1;marker:none;color-rendering:auto;image-rendering:auto;shape-rendering:auto;text-rendering:auto;enable-background:accumulate"
         d="M 14 2.0292969 L 14 4.0878906 C 17.466003 5.0546213 20 8.2183882 20 12 C 20 15.781612 17.466003 18.945379 14 19.912109 L 14 21.970703 C 18.568851 20.951387 22 16.870478 22 12 C 22 7.1295218 18.568851 3.0486134 14 2.0292969 z M 12 3.5097656 L 5.9726562 9 L 2 9 L 2 15 L 5.9726562 15 L 12 20.490234 L 12 3.5097656 z M 14 7.2402344 L 14 16.757812 A 5.282742 5.282742 0 0 0 17 12 A 5.282742 5.282742 0 0 0 14 7.2402344 z "
         transform="matrix(0.5,0,0,0.5,1,29.732051)"
         id="rect4199" />
    </g>
  </g>
</svg>
